HIERARCHY
ROOT reference
{
  OFFSET 0 0 0
  CHANNELS 6 Xposition Yposition Zposition Zrotation Xrotation Yrotation
  JOINT Hips
  {
    OFFSET 368.823 89.7904 194.012
    CHANNELS 3 Zrotation Xrotation Yrotation
    JOINT RightUpLeg
    {
      OFFSET -9.24587 -1.53924 -0.0496539
      CHANNELS 3 Zrotation Xrotation Yrotation
      JOINT RightLeg
      {
        OFFSET 0.0288962 -41.8853 0.065208
        CHANNELS 3 Zrotation Xrotation Yrotation
        JOINT RightFoot
        {
          OFFSET -0.153961 -42.496 -0.469978
          CHANNELS 3 Zrotation Xrotation Yrotation
          End Site
          {
            OFFSET 0 -7.69 17.5
          }
        }
      }
    }
    JOINT LeftUpLeg
    {
      OFFSET 9.30368 -1.65799 0.0114032
      CHANNELS 3 Zrotation Xrotation Yrotation
      JOINT LeftLeg
      {
        OFFSET 0.0812002 -41.8405 -0.136291
        CHANNELS 3 Zrotation Xrotation Yrotation
        JOINT LeftFoot
        {
          OFFSET 0.408244 -41.1613 0.400562
          CHANNELS 3 Zrotation Xrotation Yrotation
          End Site
          {
            OFFSET 0 -7.69 17.5
          }
        }
      }
    }
    JOINT Spine
    {
      OFFSET 0.0091145 14.2923 0.0603898
      CHANNELS 3 Zrotation Xrotation Yrotation
      JOINT Spine1
      {
        OFFSET 0.0313032 9.72692 0.0269052
        CHANNELS 3 Zrotation Xrotation Yrotation
        JOINT Spine2
        {
          OFFSET 0.0416827 10.1254 -0.000588186
          CHANNELS 3 Zrotation Xrotation Yrotation
          JOINT Spine3
          {
            OFFSET 0.0353017 9.71596 0.00525809
            CHANNELS 3 Zrotation Xrotation Yrotation
            JOINT Neck
            {
              OFFSET 0.0870676 10.3793 0.0454457
              CHANNELS 3 Zrotation Xrotation Yrotation
              JOINT Head
              {
                OFFSET 0.0878806 9.48152 0.0233162
                CHANNELS 3 Zrotation Xrotation Yrotation
                End Site
                {
                  OFFSET 0 15.95 0
                }
              }
            }
            JOINT RightShoulder
            {
              OFFSET -3.16008 6.92912 0.0289115
              CHANNELS 3 Zrotation Xrotation Yrotation
              JOINT RightArm
              {
                OFFSET -12.7589 0.0216905 0.0632467
                CHANNELS 3 Zrotation Xrotation Yrotation
                JOINT RightForeArm
                {
                  OFFSET -26.506 -0.0577999 0.0567862
                  CHANNELS 3 Zrotation Xrotation Yrotation
                  JOINT RightHand
                  {
                    OFFSET -25.9836 -0.0526551 -0.00138994
                    CHANNELS 3 Zrotation Xrotation Yrotation
                    JOINT RightHandThumb1
                    {
                      OFFSET -2.48905 0.190105 3.12053
                      CHANNELS 3 Zrotation Xrotation Yrotation
                      JOINT RightHandThumb2
                      {
                        OFFSET -3.68274 0 0
                        CHANNELS 3 Zrotation Xrotation Yrotation
                        JOINT RightHandThumb3
                        {
                          OFFSET -2.55832 0 0
                          CHANNELS 3 Zrotation Xrotation Yrotation
                          End Site
                          {
                            OFFSET -2.194 0 0
                          }
                        }
                      }
                    }
                    JOINT RightInHandIndex
                    {
                      OFFSET -3.22368 0.508421 1.97842
                      CHANNELS 3 Zrotation Xrotation Yrotation
                      JOINT RightHandIndex1
                      {
                        OFFSET -5.21684 -0.091368 0.999158
                        CHANNELS 3 Zrotation Xrotation Yrotation
                        JOINT RightHandIndex2
                        {
                          OFFSET -3.61937 0 0
                          CHANNELS 3 Zrotation Xrotation Yrotation
                          JOINT RightHandIndex3
                          {
                            OFFSET -2.0521 0 0
                            CHANNELS 3 Zrotation Xrotation Yrotation
                            End Site
                            {
                              OFFSET -1.805 0 0
                            }
                          }
                        }
                      }
                    }
                    JOINT RightInHandMiddle
                    {
                      OFFSET -3.38211 0.517263 0.756737
                      CHANNELS 3 Zrotation Xrotation Yrotation
                      JOINT RightHandMiddle1
                      {
                        OFFSET -5.17411 -0.084 0.313895
                        CHANNELS 3 Zrotation Xrotation Yrotation
                        JOINT RightHandMiddle2
                        {
                          OFFSET -3.94947 0 0
                          CHANNELS 3 Zrotation Xrotation Yrotation
                          JOINT RightHandMiddle3
                          {
                            OFFSET -2.47579 0 0
                            CHANNELS 3 Zrotation Xrotation Yrotation
                            End Site
                            {
                              OFFSET -1.975 0 0
                            }
                          }
                        }
                      }
                    }
                    JOINT RightInHandRing
                    {
                      OFFSET -3.36516 0.537895 -0.128947
                      CHANNELS 3 Zrotation Xrotation Yrotation
                      JOINT RightHandRing1
                      {
                        OFFSET -4.63474 -0.022105 -0.478947
                        CHANNELS 3 Zrotation Xrotation Yrotation
                        JOINT RightHandRing2
                        {
                          OFFSET -3.44238 0 0
                          CHANNELS 3 Zrotation Xrotation Yrotation
                          JOINT RightHandRing3
                          {
                            OFFSET -2.3881 0 0
                            CHANNELS 3 Zrotation Xrotation Yrotation
                            End Site
                            {
                              OFFSET -1.857 0 0
                            }
                          }
                        }
                      }
                    }
                    JOINT RightInHandPinky
                    {
                      OFFSET -3.16105 0.469368 -1.20179
                      CHANNELS 3 Zrotation Xrotation Yrotation
                      JOINT RightHandPinky1
                      {
                        OFFSET -4.14105 -0.022105 -1.09053
                        CHANNELS 3 Zrotation Xrotation Yrotation
                        JOINT RightHandPinky2
                        {
                          OFFSET -2.75653 0 0
                          CHANNELS 3 Zrotation Xrotation Yrotation
                          JOINT RightHandPinky3
                          {
                            OFFSET -1.74189 0 0
                            CHANNELS 3 Zrotation Xrotation Yrotation
                            End Site
                            {
                              OFFSET -1.645 0 0
                            }
                          }
                        }
                      }
                    }
                  }
                }
              }
            }
            JOINT LeftShoulder
            {
              OFFSET 3.24363 6.91883 -0.0263005
              CHANNELS 3 Zrotation Xrotation Yrotation
              JOINT LeftArm
              {
                OFFSET 12.8387 -0.0254922 -0.065819
                CHANNELS 3 Zrotation Xrotation Yrotation
                JOINT LeftForeArm
                {
                  OFFSET 26.503 -0.0679028 -0.0690065
                  CHANNELS 3 Zrotation Xrotation Yrotation
                  JOINT LeftHand
                  {
                    OFFSET 25.9897 -0.0384179 -0.0536179
                    CHANNELS 3 Zrotation Xrotation Yrotation
                    JOINT LeftHandThumb1
                    {
                      OFFSET 2.48905 0.190105 3.12053
                      CHANNELS 3 Zrotation Xrotation Yrotation
                      JOINT LeftHandThumb2
                      {
                        OFFSET 3.68274 0 0
                        CHANNELS 3 Zrotation Xrotation Yrotation
                        JOINT LeftHandThumb3
                        {
                          OFFSET 2.55832 0 0
                          CHANNELS 3 Zrotation Xrotation Yrotation
                          End Site
                          {
                            OFFSET 2.194 0 0
                          }
                        }
                      }
                    }
                    JOINT LeftInHandIndex
                    {
                      OFFSET 3.22368 0.508421 1.97842
                      CHANNELS 3 Zrotation Xrotation Yrotation
                      JOINT LeftHandIndex1
                      {
                        OFFSET 5.21684 -0.091368 0.999158
                        CHANNELS 3 Zrotation Xrotation Yrotation
                        JOINT LeftHandIndex2
                        {
                          OFFSET 3.61937 0 0
                          CHANNELS 3 Zrotation Xrotation Yrotation
                          JOINT LeftHandIndex3
                          {
                            OFFSET 2.0521 0 0
                            CHANNELS 3 Zrotation Xrotation Yrotation
                            End Site
                            {
                              OFFSET 1.805 0 0
                            }
                          }
                        }
                      }
                    }
                    JOINT LeftInHandMiddle
                    {
                      OFFSET 3.38211 0.517263 0.756737
                      CHANNELS 3 Zrotation Xrotation Yrotation
                      JOINT LeftHandMiddle1
                      {
                        OFFSET 5.17411 -0.084 0.313895
                        CHANNELS 3 Zrotation Xrotation Yrotation
                        JOINT LeftHandMiddle2
                        {
                          OFFSET 3.94947 0 0
                          CHANNELS 3 Zrotation Xrotation Yrotation
                          JOINT LeftHandMiddle3
                          {
                            OFFSET 2.47579 0 0
                            CHANNELS 3 Zrotation Xrotation Yrotation
                            End Site
                            {
                              OFFSET 1.975 0 0
                            }
                          }
                        }
                      }
                    }
                    JOINT LeftInHandRing
                    {
                      OFFSET 3.36516 0.537895 -0.128947
                      CHANNELS 3 Zrotation Xrotation Yrotation
                      JOINT LeftHandRing1
                      {
                        OFFSET 4.63474 -0.022105 -0.478947
                        CHANNELS 3 Zrotation Xrotation Yrotation
                        JOINT LeftHandRing2
                        {
                          OFFSET 3.44238 0 0
                          CHANNELS 3 Zrotation Xrotation Yrotation
                          JOINT LeftHandRing3
                          {
                            OFFSET 2.3881 0 0
                            CHANNELS 3 Zrotation Xrotation Yrotation
                            End Site
                            {
                              OFFSET 1.857 0 0
                            }
                          }
                        }
                      }
                    }
                    JOINT LeftInHandPinky
                    {
                      OFFSET 3.16105 0.469368 -1.20179
                      CHANNELS 3 Zrotation Xrotation Yrotation
                      JOINT LeftHandPinky1
                      {
                        OFFSET 4.14105 -0.022105 -1.09053
                        CHANNELS 3 Zrotation Xrotation Yrotation
                        JOINT LeftHandPinky2
                        {
                          OFFSET 2.75653 0 0
                          CHANNELS 3 Zrotation Xrotation Yrotation
                          JOINT LeftHandPinky3
                          {
                            OFFSET 1.74189 0 0
                            CHANNELS 3 Zrotation Xrotation Yrotation
                            End Site
                            {
                              OFFSET 1.645 0 0
                            }
                          }
                        }
                      }
                    }
                  }
                }
              }
            }
          }
        }
      }
    }
  }
}
MOTION
Frames: 2
Frame Time: 0.00833333
9.000000000000000000e+02 0.000000000000000000e+00 0.000000000000000000e+00 0.000000000000000000e+00 0.000000000000000000e+00 0.000000000000000000e+00 -6.222664760628763503e+00 4.308641283583114490e-01 3.275211499466764309e+01 -1.926968717415838483e+01 1.393807363496364538e+01 -1.110774139326553112e+01 3.505052291989461555e+00 -3.933658648601026098e+00 -5.410229770931142212e+00 2.894938506226502284e+00 -1.353401021952741257e+00 -8.517605629577282400e+00 -1.925848199908677572e+01 2.162834122117513580e+00 -1.583876625677546635e+01 1.184146730084331978e+01 -2.515664457264919385e+00 -1.158884375243580145e+01 -3.732883674885043579e-01 4.065212245465861685e+00 -1.163868846051459016e+01 1.524724991477277580e+00 3.963601663029475031e+00 1.930142018090351286e+01 5.486667464022026985e-01 6.918535397673554188e-01 4.959336553438999928e+00 8.545736577949770707e-01 9.693463593384352706e-01 7.602320785734291597e+00 4.226305127326673849e-01 1.694435118401612650e-01 -1.928681310120647474e+00 1.117970405658546440e+00 1.166593541153522651e+00 -1.943260064650248253e+01 7.683564084217344714e+00 2.199187262775032625e+00 -2.556037170229572553e+01 -3.392312177944110552e+00 -5.416795347173063213e+00 1.291821051238042806e+01 -1.200812672912916490e+00 2.499576945331158129e+01 2.920757497671225167e+01 -1.016925933561039130e+01 7.072490036553066517e+00 -3.622314273078008284e+01 6.928716807509234243e+00 4.908259692397079377e+00 -9.371534792491656773e+00 0.000000000000000000e+00 0.000000000000000000e+00 0.000000000000000000e+00 3.266088047592947678e-15 -6.995958137539202767e-16 0.000000000000000000e+00 1.877488048918665385e-15 -3.632175092651168214e-17 0.000000000000000000e+00 -1.027079143069457066e-15 -2.697206010956102799e-15 2.761081241714018106e-16 0.000000000000000000e+00 0.000000000000000000e+00 0.000000000000000000e+00 0.000000000000000000e+00 1.008531769768714185e-15 2.702042679323485838e-15 0.000000000000000000e+00 1.110734448321380112e-15 4.368271210921683054e-15 -1.027079143069457066e-15 -2.697206010956102799e-15 2.761081241714018106e-16 0.000000000000000000e+00 1.536547777380562264e-16 -2.125850573820706408e-16 0.000000000000000000e+00 1.099322520841127499e-15 3.841065766185291009e-15 0.000000000000000000e+00 1.487316485660752773e-15 2.499937205759986094e-15 -1.027079143069457066e-15 -2.697206010956102799e-15 2.761081241714018106e-16 0.000000000000000000e+00 0.000000000000000000e+00 0.000000000000000000e+00 0.000000000000000000e+00 2.445830815014464157e-15 3.779638648325156264e-15 0.000000000000000000e+00 2.152262421797315787e-15 -1.817732406148907689e-15 -1.027079143069457066e-15 -2.697206010956102799e-15 2.761081241714018106e-16 0.000000000000000000e+00 0.000000000000000000e+00 0.000000000000000000e+00 0.000000000000000000e+00 7.540921129488286310e-16 2.205850940912835493e-15 0.000000000000000000e+00 -3.000771837176881106e-16 1.294257158959210025e-15 -5.042153856978455195e-01 1.139168443509543938e+00 1.092419128763461345e+01 -2.764539480382653380e+01 -5.929003787418157145e+00 2.150647917179027147e+01 -4.006872940665062544e+01 -1.802180072591536231e+01 -4.796997092340578206e+01 6.359459752301546587e+00 2.297528094822569589e+00 -2.393794827635745914e+00 0.000000000000000000e+00 0.000000000000000000e+00 0.000000000000000000e+00 -1.185157772346784399e-15 -1.371462177487004312e-15 0.000000000000000000e+00 3.861819780771159307e-17 2.641050315886217714e-16 0.000000000000000000e+00 -1.429010335454995950e-16 -2.499246624554960916e-15 2.110020061605693544e-15 0.000000000000000000e+00 0.000000000000000000e+00 0.000000000000000000e+00 0.000000000000000000e+00 -9.357325375382375262e-16 -8.736240739609041722e-16 0.000000000000000000e+00 -1.625665514733068270e-15 -7.817944212352656774e-16 -1.429010335454995950e-16 -2.499246624554960916e-15 2.110020061605693544e-15 0.000000000000000000e+00 8.200896786030874150e-16 -1.316939433867444390e-15 0.000000000000000000e+00 2.347778322694039634e-16 -9.209408554735807878e-16 0.000000000000000000e+00 -9.847175932441835653e-16 5.849271169731545579e-16 -1.429010335454995950e-16 -2.499246624554960916e-15 2.110020061605693544e-15 0.000000000000000000e+00 0.000000000000000000e+00 0.000000000000000000e+00 0.000000000000000000e+00 -3.475969656121543094e-16 -2.479647326688377361e-15 0.000000000000000000e+00 1.017324048411678258e-15 -3.180434693598534796e-15 -1.429010335454995950e-16 -2.499246624554960916e-15 2.110020061605693544e-15 0.000000000000000000e+00 0.000000000000000000e+00 0.000000000000000000e+00 0.000000000000000000e+00 7.475955312932784628e-16 1.201971149340301534e-15 0.000000000000000000e+00 1.636851854597261091e-15 1.437001348902264289e-16
9.000000000000000000e+02 0.000000000000000000e+00 0.000000000000000000e+00 0.000000000000000000e+00 0.000000000000000000e+00 0.000000000000000000e+00 -6.336825800900573569e+00 2.602662335190439324e-01 3.292732191549787046e+01 -1.925306439955691218e+01 1.425729186282029737e+01 -1.094404914000654649e+01 3.496679961602545905e+00 -4.131531881801834061e+00 -5.368265218594785004e+00 2.802154703712649741e+00 -1.177766365721624187e+00 -8.413762153516302078e+00 -1.931607668673441580e+01 2.452795600065843740e+00 -1.573986448682572892e+01 1.179224965659968838e+01 -2.610690650323089557e+00 -1.159549282285200178e+01 -3.818417542637905226e-01 4.003061708079163949e+00 -1.176886433903787221e+01 1.431222323586155420e+00 3.922807234345111027e+00 1.972230167397392719e+01 5.270112939710116517e-01 6.722805169250343216e-01 5.065098005110386659e+00 8.186240554303210182e-01 9.330666730554918464e-01 7.761109500882461099e+00 4.241267444388903129e-01 1.664429748025451905e-01 -1.946619149574678520e+00 1.137254166796298982e+00 1.141446210721748677e+00 -1.965724293287746960e+01 7.700435665476256908e+00 2.234525129523321052e+00 -2.578933552311413990e+01 -3.480499421337556853e+00 -5.367208747072912622e+00 1.313514488249349021e+01 -1.517664493950848570e+00 2.512260387775366155e+01 2.954238444728468949e+01 -1.007571075358062274e+01 6.949773384987509850e+00 -3.618854496286564171e+01 7.071041319813597070e+00 5.167706245556389355e+00 -9.762026792880599046e+00 0.000000000000000000e+00 0.000000000000000000e+00 0.000000000000000000e+00 3.341343886610951065e-15 -7.126692891842677625e-16 0.000000000000000000e+00 1.968285590475776494e-15 -6.722460922388427077e-17 0.000000000000000000e+00 -1.064897796960754023e-15 -2.773383407245202949e-15 2.656640165619765695e-16 0.000000000000000000e+00 0.000000000000000000e+00 0.000000000000000000e+00 0.000000000000000000e+00 9.898324157275170226e-16 2.648559963221335788e-15 0.000000000000000000e+00 1.078557679624561907e-15 4.247296405413030281e-15 -1.064897796960754023e-15 -2.773383407245202949e-15 2.656640165619765695e-16 0.000000000000000000e+00 1.438717592700871326e-16 -2.599669169135704418e-16 0.000000000000000000e+00 1.042399764101150960e-15 3.891686096375482969e-15 0.000000000000000000e+00 1.434559228316701113e-15 2.392970917408088774e-15 -1.064897796960754023e-15 -2.773383407245202949e-15 2.656640165619765695e-16 0.000000000000000000e+00 0.000000000000000000e+00 0.000000000000000000e+00 0.000000000000000000e+00 2.398774464655748705e-15 3.755346698339603571e-15 0.000000000000000000e+00 2.142407841332199141e-15 -1.915326304881424127e-15 -1.064897796960754023e-15 -2.773383407245202949e-15 2.656640165619765695e-16 0.000000000000000000e+00 0.000000000000000000e+00 0.000000000000000000e+00 0.000000000000000000e+00 7.974494591748677334e-16 2.302902417330304154e-15 0.000000000000000000e+00 -3.188144452970058705e-16 1.294126953756053269e-15 -6.088494004351561184e-01 1.233142064820279771e+00 1.103879519819192012e+01 -2.781150902250606904e+01 -6.116655448936620054e+00 2.166074620406045170e+01 -4.030299592878118631e+01 -1.824046390011483254e+01 -4.878279679287515336e+01 6.559831174019021383e+00 2.299007361742559929e+00 -2.372556021680701122e+00 0.000000000000000000e+00 0.000000000000000000e+00 0.000000000000000000e+00 -1.240778152640040911e-15 -1.422898181811842356e-15 0.000000000000000000e+00 6.245351986514069456e-17 2.615364862176652299e-16 0.000000000000000000e+00 -1.303158890013144850e-16 -2.569175058223807265e-15 2.132563914729474915e-15 0.000000000000000000e+00 0.000000000000000000e+00 0.000000000000000000e+00 0.000000000000000000e+00 -9.492527327491649646e-16 -8.210209177452552875e-16 0.000000000000000000e+00 -1.688070153294052801e-15 -7.172815763366278769e-16 -1.303158890013144850e-16 -2.569175058223807265e-15 2.132563914729474915e-15 0.000000000000000000e+00 8.198980423773662755e-16 -1.329047899813746937e-15 0.000000000000000000e+00 2.016245706342127623e-16 -8.810104166381541924e-16 0.000000000000000000e+00 -1.018376807164288583e-15 5.892192004206928980e-16 -1.303158890013144850e-16 -2.569175058223807265e-15 2.132563914729474915e-15 0.000000000000000000e+00 0.000000000000000000e+00 0.000000000000000000e+00 0.000000000000000000e+00 -3.355475934337237612e-16 -2.432998401308626155e-15 0.000000000000000000e+00 1.025233105015316848e-15 -3.182164419905291347e-15 -1.303158890013144850e-16 -2.569175058223807265e-15 2.132563914729474915e-15 0.000000000000000000e+00 0.000000000000000000e+00 0.000000000000000000e+00 0.000000000000000000e+00 7.906859570878245884e-16 1.234266606843598363e-15 0.000000000000000000e+00 1.659932481052323963e-15 2.104460905508005684e-16
